<?xml version="1.0" standalone="no"?>
<!DOCTYPE svg PUBLIC "-//W3C//DTD SVG 20010904//EN"
 "http://www.w3.org/TR/2001/REC-SVG-20010904/DTD/svg10.dtd">
<svg version="1.0" xmlns="http://www.w3.org/2000/svg"
 width="864.000000pt" height="603.000000pt" viewBox="0 0 864.000000 603.000000"
 preserveAspectRatio="xMidYMid meet">
<metadata>
Created by potrace 1.10, written by Peter Selinger 2001-2011
</metadata>
<g transform="translate(0.000000,603.000000) scale(0.100000,-0.100000)"
fill="#a59b9b" stroke="none">
<path d="M6590 6016 c0 -7 9 -24 19 -38 11 -14 25 -47 32 -74 6 -27 17 -56 24
-64 26 -31 42 -77 48 -130 3 -30 15 -73 26 -95 12 -21 21 -46 21 -55 0 -9 7
-43 16 -75 20 -79 44 -220 84 -505 43 -309 49 -358 54 -458 7 -116 30 -195 73
-249 15 -19 38 -51 50 -70 24 -41 127 -133 148 -133 8 0 28 -13 45 -30 17 -16
46 -32 67 -36 21 -3 63 -14 93 -22 78 -23 412 -18 458 7 11 6 32 11 46 11 14
0 47 11 73 25 27 13 74 31 105 40 32 9 60 20 63 25 3 4 16 11 30 14 14 4 49
17 78 31 76 35 135 54 156 48 11 -3 28 4 40 16 31 31 27 83 -10 148 -18 30
-41 83 -53 117 -12 34 -30 73 -39 86 -9 13 -17 28 -17 33 0 5 -9 21 -21 35
-11 15 -46 66 -77 113 -69 103 -137 195 -154 206 -7 4 -29 29 -50 54 -85 107
-340 345 -493 461 -33 25 -69 56 -80 68 -11 12 -33 29 -50 37 -16 9 -50 33
-75 55 -25 21 -62 49 -82 61 -20 12 -81 52 -135 88 -54 36 -117 77 -140 90
-23 13 -68 40 -100 60 -32 19 -87 46 -122 60 -38 14 -66 31 -69 42 -6 22 -82
25 -82 3z m215 -216 c3 -5 12 -7 21 -3 8 3 22 -1 32 -9 9 -8 55 -34 102 -57
47 -24 99 -55 115 -68 36 -29 89 -66 129 -90 16 -10 45 -32 65 -49 20 -17 52
-39 71 -49 19 -10 59 -39 89 -64 148 -127 221 -193 221 -201 0 -4 16 -17 35
-29 19 -11 35 -28 35 -38 0 -11 13 -24 31 -32 37 -16 229 -211 275 -279 17
-26 43 -58 58 -71 14 -14 26 -30 26 -38 0 -7 15 -30 33 -50 53 -61 87 -111 87
-127 0 -8 18 -50 40 -93 22 -43 40 -90 40 -104 0 -16 9 -32 22 -41 23 -16 18
-38 -10 -38 -9 0 -30 -13 -45 -30 -17 -18 -39 -30 -54 -30 -14 0 -40 -13 -58
-29 -24 -21 -49 -31 -87 -36 -29 -4 -75 -18 -103 -32 -91 -46 -219 -71 -395
-77 -60 -2 -109 2 -134 11 -21 7 -49 13 -62 13 -12 0 -67 23 -122 51 -76 38
-103 57 -112 78 -6 16 -25 38 -42 51 -16 12 -42 48 -56 79 -14 31 -28 58 -32
61 -22 16 -42 76 -37 114 3 23 -1 84 -9 136 -7 52 -16 131 -19 175 -3 44 -10
96 -16 115 -5 19 -14 69 -19 110 -5 41 -14 98 -19 125 -6 28 -15 86 -20 130
-4 44 -20 123 -34 175 -14 52 -29 118 -32 145 -4 28 -12 56 -17 62 -13 16 -19
143 -8 143 5 0 11 -4 15 -10z"/>
<path d="M2625 5926 c-22 -12 -45 -32 -51 -44 -6 -12 -18 -30 -26 -39 -9 -10
-26 -45 -39 -78 l-24 -60 -2 -1680 c-2 -924 -4 -1721 -4 -1771 -3 -110 23
-189 82 -259 9 -11 19 -32 22 -46 5 -19 24 -34 84 -64 43 -21 90 -47 104 -58
28 -20 135 -48 209 -54 107 -9 4958 -9 5005 -1 98 19 124 28 130 48 5 15 15
20 39 20 19 0 47 10 67 25 19 13 50 33 70 44 47 26 87 79 127 171 l33 75 -1
942 c0 910 -3 1003 -30 1003 -28 0 -30 -44 -30 -851 0 -759 -4 -1002 -16
-1037 -2 -7 1 -22 6 -32 13 -24 -7 -76 -39 -104 -15 -14 -21 -31 -21 -63 l0
-43 -41 0 c-34 0 -49 -7 -87 -41 -50 -44 -95 -70 -127 -75 -11 -2 -40 -10 -63
-19 -42 -15 -176 -14 -238 1 -13 3 -28 3 -33 -1 -6 -3 -1004 -8 -2219 -10
-1214 -2 -2274 -6 -2355 -10 -114 -5 -152 -3 -164 6 -43 37 -91 54 -213 79
-35 6 -140 76 -140 93 0 4 -10 18 -23 30 -13 12 -29 42 -37 67 -7 25 -18 51
-23 58 -6 7 -10 676 -11 1763 -1 1631 0 1752 16 1763 13 9 18 31 20 82 3 67 4
69 30 72 30 4 112 85 105 105 -6 20 -50 17 -92 -7z"/>
<path d="M3334 5919 c-17 -5 -37 -16 -44 -24 -7 -8 -19 -15 -27 -15 -9 0 -31
-13 -50 -30 -18 -16 -42 -30 -52 -30 -19 0 -61 -39 -61 -58 0 -8 17 -12 45
-12 42 0 46 2 59 35 12 27 21 35 41 35 14 0 39 7 55 15 26 13 117 15 707 12
1320 -6 2533 -7 2548 -1 40 16 -1 36 -80 40 -27 2 -68 5 -90 9 -77 11 -339 14
-1652 19 -727 3 -1332 7 -1345 10 -13 3 -37 0 -54 -5z"/>
<path d="M1906 5851 c-17 -7 -18 -65 -17 -1866 0 -1746 1 -1861 18 -1872 9 -7
26 -13 37 -13 25 1 96 16 102 23 3 2 6 840 7 1861 2 1850 2 1857 -18 1861 -49
9 -112 12 -129 6z"/>
<path d="M1130 5785 c-11 -14 -15 -46 -15 -126 0 -98 2 -111 22 -130 l22 -22
56 21 c49 19 77 22 210 22 115 0 165 -4 204 -17 74 -24 96 -11 111 64 17 80 7
163 -21 186 -19 15 -31 17 -73 10 -66 -10 -386 -10 -451 1 -43 7 -53 6 -65 -9z"/>
<path d="M3037 5754 c-31 -17 -33 -40 -5 -58 22 -13 60 19 56 48 -4 26 -17 28
-51 10z"/>
<path d="M2953 5681 c-12 -10 -31 -41 -42 -67 -19 -51 -55 -118 -77 -144 -35
-43 -38 -148 -45 -1615 -4 -792 -8 -1453 -8 -1469 -1 -16 5 -39 14 -52 8 -13
15 -32 15 -42 0 -10 8 -26 18 -35 47 -43 64 4 28 74 -25 46 -26 54 -16 112 14
85 14 2703 0 2814 -10 79 -10 83 15 119 14 20 25 44 25 54 0 9 9 25 19 34 11
10 23 31 26 47 4 15 20 45 36 65 22 28 29 47 29 80 0 49 -5 52 -37 25z"/>
<path d="M3475 5680 c-51 -3 -121 -15 -162 -28 -67 -21 -79 -29 -163 -113 -49
-50 -90 -100 -90 -110 0 -26 35 -42 73 -33 18 4 484 8 1037 8 553 1 1011 5
1018 10 15 9 62 -29 62 -50 0 -6 16 -24 35 -38 25 -20 35 -35 35 -55 0 -15 3
-31 8 -35 4 -4 7 -31 7 -59 0 -56 -6 -50 99 -99 40 -19 53 -32 76 -78 34 -69
48 -197 26 -239 -8 -14 -23 -48 -33 -75 -14 -36 -27 -53 -53 -66 -121 -60
-110 -57 -205 -52 -88 5 -91 6 -145 48 -112 87 -130 121 -130 239 0 51 6 99
14 120 20 48 89 111 144 131 26 9 53 24 60 33 20 25 15 75 -11 99 l-24 22
-509 1 c-280 0 -515 0 -521 -1 -17 0 -16 -35 2 -70 12 -24 13 -42 5 -97 -5
-37 -12 -77 -15 -88 -3 -11 -1 -26 3 -33 9 -13 160 -62 193 -62 9 0 29 -17 45
-37 46 -61 101 -113 119 -113 25 0 13 53 -20 92 -14 16 -25 33 -25 38 0 5 -25
16 -55 25 -31 9 -58 22 -62 30 -3 8 -13 15 -23 15 -35 0 -85 38 -99 75 -10 27
-10 43 -1 70 6 19 9 39 5 45 -3 5 18 20 47 33 52 23 57 23 441 24 332 1 390
-1 403 -14 19 -19 2 -43 -30 -43 -28 0 -46 -18 -46 -44 0 -12 -9 -36 -20 -54
-11 -18 -20 -39 -20 -46 0 -7 -7 -19 -15 -26 -12 -10 -15 -37 -15 -120 0 -122
12 -163 66 -223 19 -20 34 -41 34 -45 0 -13 47 -32 78 -32 15 0 41 -7 57 -16
81 -44 267 1 324 79 7 10 24 22 37 27 36 14 46 52 47 190 1 119 0 127 -26 167
-14 23 -43 54 -63 69 -20 16 -47 45 -60 66 -13 21 -35 40 -48 44 -33 8 -40 31
-16 46 30 19 25 48 -10 61 -23 9 -34 22 -42 50 -12 41 -49 77 -79 77 -10 0
-30 12 -44 26 -17 17 -32 24 -43 19 -9 -3 -53 -6 -97 -4 -44 1 -215 1 -380 0
-165 -1 -309 -1 -320 -1 -11 0 -132 2 -270 5 -137 3 -259 5 -270 5 -11 0 -152
-2 -312 -4 -276 -4 -293 -3 -293 14 0 36 79 99 154 124 68 23 79 24 199 16 93
-6 138 -5 169 4 29 9 70 11 123 6 74 -6 170 -5 620 4 552 12 891 14 908 5 37
-21 1166 -5 1195 17 9 7 13 16 9 21 -9 9 -2962 12 -3112 3z"/>
<path d="M1004 5304 c-13 -20 -17 -48 -16 -129 0 -57 3 -113 7 -124 11 -36 41
-44 88 -26 36 14 80 15 297 12 140 -3 274 -8 297 -12 34 -6 43 -4 51 12 30 55
25 225 -7 264 l-17 22 -65 -19 c-55 -16 -96 -19 -289 -18 -212 1 -227 2 -260
22 -46 29 -66 28 -86 -4z"/>
<path d="M3028 5254 c-32 -17 -34 -26 -13 -58 14 -21 16 -176 15 -1396 0
-1285 -1 -1374 -17 -1385 -16 -12 -14 -17 20 -69 20 -31 56 -69 80 -85 23 -17
55 -40 71 -53 47 -36 148 -60 266 -63 58 -2 132 -4 165 -5 33 -1 564 -2 1180
-1 616 1 1161 -2 1210 -5 108 -8 125 1 105 60 -6 20 -8 46 -4 58 4 13 6 43 5
68 -1 25 4 78 10 119 9 63 8 76 -4 89 -13 12 -23 13 -60 4 -29 -8 -187 -12
-448 -12 -222 -1 -561 -2 -754 -2 -524 -2 -503 -4 -535 47 -12 19 -56 61 -98
93 -97 74 -138 110 -225 195 -72 70 -109 88 -136 68 -62 -45 -78 -51 -136 -51
-72 0 -105 -8 -105 -25 0 -24 47 -35 87 -21 21 7 61 17 89 20 43 6 57 4 99
-18 26 -14 54 -26 61 -26 8 0 51 -37 96 -83 46 -45 105 -98 131 -117 26 -19
56 -42 65 -51 9 -8 42 -33 72 -55 l54 -39 306 3 c326 3 323 3 475 1 55 -1 120
1 145 5 26 4 57 3 72 -3 19 -7 67 -8 145 -2 66 5 123 5 128 1 6 -5 84 -8 173
-6 90 1 165 -1 168 -6 3 -4 13 -8 23 -8 42 0 69 -72 52 -137 -6 -22 -27 -55
-51 -78 l-40 -39 -46 12 c-34 9 -67 10 -135 1 -50 -6 -97 -8 -106 -5 -8 4
-347 6 -752 5 -405 -1 -763 0 -796 1 -33 2 -69 3 -80 2 -43 -3 -291 -14 -310
-14 -142 1 -371 15 -385 22 -10 6 -34 10 -54 10 -37 0 -74 26 -182 127 l-55
52 17 33 c16 29 17 69 16 373 0 187 -1 792 -2 1344 -1 924 1 1005 16 1022 9
10 25 21 35 24 13 4 19 16 19 34 0 24 -5 30 -31 35 -48 9 -81 7 -111 -10z"/>
<path d="M3455 5250 c-228 -5 -230 -5 -233 -27 l-3 -22 258 -2 c142 0 290 0
330 1 39 1 82 -4 94 -10 20 -11 21 -18 17 -81 -6 -72 -27 -119 -55 -119 -9 0
-31 -11 -48 -25 -18 -13 -51 -32 -74 -41 -38 -15 -81 -64 -81 -93 0 -19 15
-12 74 34 32 25 63 45 70 45 6 0 25 7 41 16 17 9 52 17 79 19 27 1 52 8 57 16
9 15 5 146 -6 179 -4 11 1 34 9 52 9 17 16 39 16 49 0 20 -16 20 -545 9z"/>
<path d="M5230 5023 c-36 -14 -100 -77 -114 -114 -9 -22 -16 -59 -16 -84 0
-38 5 -49 36 -77 51 -47 73 -57 124 -58 61 0 101 27 133 89 31 57 33 80 13
119 -15 29 -111 122 -125 122 -5 0 -15 2 -23 4 -7 3 -20 2 -28 -1z m95 -115
c20 -18 26 -32 27 -66 1 -54 -8 -63 -66 -69 -56 -7 -85 0 -114 27 -36 34 -29
63 26 99 56 37 92 39 127 9z"/>
<path d="M6030 4966 c-136 -40 -186 -62 -215 -94 -16 -19 -46 -50 -65 -69 -19
-20 -36 -45 -37 -56 -2 -11 -10 -32 -18 -46 -38 -69 -39 -71 -28 -82 15 -15
33 -3 33 22 0 11 16 33 35 50 21 19 39 47 45 71 9 32 18 42 48 55 20 8 55 32
77 53 22 21 53 44 68 49 38 15 323 14 386 -1 28 -6 54 -9 57 -5 10 9 -16 38
-44 48 -43 17 -292 20 -342 5z"/>
<path d="M6440 4915 c0 -12 52 -76 107 -133 36 -36 67 -79 74 -100 6 -20 17
-43 23 -51 18 -23 19 -361 2 -380 -8 -9 -18 -29 -22 -44 -6 -26 -4 -28 17 -25
15 2 26 12 31 28 23 84 32 147 33 237 0 56 4 105 8 109 4 4 3 12 -3 19 -5 6
-16 38 -23 71 -21 88 -91 184 -161 219 -30 15 -57 34 -60 41 -5 13 -26 20 -26
9z"/>
<path d="M831 4794 c-17 -22 -21 -41 -21 -110 0 -129 20 -153 110 -133 28 7
186 9 425 7 l380 -3 12 25 c18 35 17 164 -2 200 -18 35 -37 40 -94 23 -68 -20
-673 -18 -731 2 -55 19 -55 19 -79 -11z"/>
<path d="M3975 4804 c-11 -3 -37 -10 -57 -15 -25 -6 -43 -19 -55 -40 -10 -17
-39 -42 -65 -55 -40 -20 -49 -30 -59 -66 -6 -24 -15 -54 -20 -67 -5 -13 -10
-61 -10 -106 0 -75 3 -88 32 -140 17 -31 37 -59 44 -61 7 -3 27 -25 46 -50 46
-61 106 -79 239 -71 125 8 168 24 203 76 16 22 32 41 38 41 24 0 59 81 69 166
10 83 10 88 -11 110 -18 19 -20 31 -16 66 6 42 5 45 -53 107 -48 51 -72 68
-117 83 -58 20 -170 31 -208 22z m85 -64 c36 -11 77 -20 93 -20 36 0 108 -74
144 -149 41 -84 38 -136 -16 -248 -40 -83 -48 -93 -85 -108 -23 -9 -78 -21
-124 -27 l-83 -11 -52 36 c-29 19 -64 41 -78 47 -60 27 -80 80 -81 216 -1 88
61 187 162 258 43 30 41 30 120 6z"/>
<path d="M6111 4788 c-85 -19 -117 -59 -64 -79 22 -8 32 -6 54 10 23 17 38 20
84 16 31 -3 71 -11 88 -19 18 -8 40 -16 49 -19 9 -3 22 -23 27 -44 17 -60 23
-65 65 -58 27 5 36 12 36 27 0 29 -27 76 -49 83 -11 3 -27 17 -36 31 -9 14
-31 32 -48 39 -45 18 -154 26 -206 13z"/>
<path d="M3597 4783 c-4 -3 -7 -12 -7 -19 0 -8 -23 -37 -51 -66 l-51 -53 7
-93 c4 -62 2 -103 -6 -125 -10 -27 -9 -38 5 -65 9 -17 16 -53 16 -81 0 -54 17
-81 51 -81 14 0 26 -14 40 -45 11 -25 35 -60 53 -78 36 -37 122 -76 112 -52
-8 23 -126 163 -142 169 -8 3 -14 15 -14 26 0 21 -27 81 -40 90 -12 8 -33 206
-25 242 14 67 38 133 83 231 4 9 -22 9 -31 0z"/>
<path d="M4500 4683 c0 -21 12 -62 25 -92 24 -50 25 -63 21 -162 -3 -97 -6
-111 -30 -142 -14 -19 -26 -36 -26 -39 0 -3 -16 -29 -35 -58 -34 -50 -46 -100
-24 -100 27 0 49 24 64 69 9 27 23 55 31 61 27 23 54 137 54 229 -1 129 -15
229 -35 251 -29 32 -45 25 -45 -17z"/>
<path d="M5933 4674 c-115 -121 -113 -117 -113 -214 0 -78 3 -92 24 -117 12
-15 29 -39 37 -53 32 -59 97 -130 134 -149 63 -31 159 -46 204 -32 21 6 49 11
62 11 53 1 130 61 174 135 64 108 72 132 63 183 -5 26 -11 69 -15 95 -6 51
-23 68 -48 47 -22 -18 -18 -55 8 -73 19 -13 20 -18 10 -36 -7 -11 -13 -31 -13
-43 0 -55 -31 -121 -81 -176 -71 -79 -81 -83 -232 -108 -32 -6 -43 -3 -65 18
-15 14 -41 30 -58 37 -30 12 -64 56 -64 85 0 8 -11 27 -25 42 -14 15 -28 39
-31 53 -3 14 -10 40 -15 58 -7 23 -6 46 6 88 14 45 24 61 55 81 44 29 59 69
36 92 -13 14 -19 11 -53 -24z"/>
<path d="M5640 4554 c-14 -35 -12 -98 2 -112 9 -9 9 -23 -1 -60 -10 -42 -10
-55 4 -90 9 -22 23 -43 32 -46 9 -4 13 -13 9 -22 -7 -17 20 -75 40 -87 8 -4
14 -14 14 -20 0 -15 111 -127 125 -127 6 0 47 -19 93 -42 63 -33 82 -47 78
-60 -2 -10 3 -39 11 -65 20 -65 22 -545 3 -568 -20 -24 -17 -242 4 -283 13
-24 15 -47 10 -104 -9 -102 -20 -126 -65 -133 -20 -4 -188 -7 -374 -9 -260 -2
-340 1 -353 11 -9 7 -23 13 -29 13 -18 0 -53 37 -53 55 0 8 8 15 18 15 11 0
27 8 36 19 17 19 34 91 22 91 -30 0 -98 -26 -104 -39 -4 -9 -7 -63 -7 -121 l0
-105 485 0 485 0 -2 35 c-1 19 -2 80 -3 135 -1 56 -8 119 -16 143 -17 51 -19
218 -3 259 14 35 12 528 -2 591 -8 35 -6 49 7 72 24 40 13 58 -43 65 -49 6
-111 34 -148 65 -11 9 -40 28 -65 42 -25 15 -56 38 -69 52 -14 14 -30 26 -37
26 -19 0 -26 17 -15 38 7 14 3 35 -16 83 -23 55 -27 80 -28 175 -1 60 -5 116
-9 122 -12 19 -26 14 -36 -14z"/>
<path d="M734 4342 c-24 -16 -34 -55 -34 -135 0 -94 13 -142 42 -158 16 -9 28
-5 60 18 l41 28 356 3 c344 3 358 3 428 -19 39 -12 78 -19 86 -16 38 15 47
200 12 254 -15 22 -22 24 -53 19 -107 -20 -207 -24 -515 -20 -282 3 -341 6
-360 19 -23 16 -46 19 -63 7z"/>
<path d="M6592 4173 c-7 -3 -19 -18 -28 -35 -28 -54 17 -66 52 -14 24 37 11
63 -24 49z"/>
<path d="M4282 4035 c-18 -15 -62 -33 -109 -45 -43 -11 -89 -25 -103 -30 -20
-8 -35 -7 -63 5 -20 8 -47 15 -59 15 -13 0 -45 12 -72 26 -32 17 -56 24 -73
19 -31 -7 -27 -37 7 -47 97 -27 113 -34 117 -49 6 -21 62 -33 95 -20 15 5 31
5 41 0 11 -6 24 -6 36 1 11 5 29 10 40 10 31 0 186 77 223 110 l32 30 -41 0
c-30 0 -50 -7 -71 -25z"/>
<path d="M6426 4025 c-22 -8 -52 -23 -67 -34 -16 -12 -41 -21 -57 -21 -15 0
-36 -6 -46 -13 -16 -12 -17 -19 -6 -74 9 -45 11 -169 6 -464 -3 -222 -7 -422
-8 -444 l-3 -40 50 2 c86 3 658 3 705 1 l45 -3 -2 132 c0 72 -4 137 -8 142 -3
6 -13 11 -22 11 -30 0 -122 50 -141 77 -25 35 -78 67 -87 53 -11 -17 29 -74
62 -90 60 -29 90 -64 98 -116 4 -27 13 -57 21 -68 43 -61 -3 -80 -185 -77
-161 4 -202 4 -340 2 -63 -1 -109 3 -115 9 -8 8 -11 148 -11 445 l0 433 23 25
c13 14 44 30 68 36 33 9 50 20 64 44 32 52 25 57 -44 32z"/>
<path d="M6975 3943 c-22 -7 -62 -34 -90 -58 -41 -37 -47 -46 -35 -55 24 -17
52 -7 70 24 22 40 101 66 207 69 46 1 83 5 83 8 0 10 -109 29 -154 28 -23 -1
-59 -8 -81 -16z"/>
<path d="M8093 3948 c-10 -16 -21 -1440 -11 -1487 10 -50 30 -58 46 -19 11 26
13 166 9 753 -2 396 -8 730 -12 743 -8 25 -20 28 -32 10z"/>
<path d="M7910 3889 c0 -11 5 -17 10 -14 6 3 10 13 10 21 0 8 -4 14 -10 14 -5
0 -10 -9 -10 -21z"/>
<path d="M943 3853 c-32 -22 -54 -184 -33 -247 14 -42 38 -52 108 -42 98 14
487 18 568 5 153 -23 159 -18 158 119 -1 120 -16 172 -48 172 -13 0 -44 -11
-70 -25 -44 -23 -56 -25 -189 -24 -78 0 -155 0 -172 0 -162 -4 -199 0 -221 20
-23 22 -82 34 -101 22z"/>
<path d="M7388 3798 c36 -39 62 -75 62 -88 0 -25 17 -60 30 -60 4 0 12 14 15
32 6 25 3 35 -12 48 -11 9 -23 25 -27 36 -8 26 -64 84 -81 84 -8 0 -22 3 -32
7 -10 3 10 -23 45 -59z"/>
<path d="M7898 3818 c-10 -18 -13 -147 -15 -618 -2 -715 -3 -759 -16 -785 -10
-19 -29 -41 -105 -117 -80 -81 -213 -98 -792 -98 -195 -1 -415 -1 -488 -2
-113 -1 -135 1 -150 16 -15 15 -17 44 -19 242 -1 123 2 235 7 248 6 17 19 25
47 29 42 7 301 9 573 6 97 -2 181 1 188 5 21 12 13 23 -26 39 -31 13 -104 16
-413 17 -205 1 -390 3 -409 4 l-35 1 5 -200 c6 -247 6 -333 0 -410 l-5 -60 60
0 c469 4 1257 18 1313 23 65 7 77 12 103 40 17 18 36 32 43 32 7 0 36 19 65
42 38 31 54 52 62 82 6 23 19 50 30 62 19 20 19 42 17 719 -3 715 -5 745 -40
683z"/>
<path d="M6785 3810 c-29 -19 -41 -48 -50 -120 -1 -14 -8 -38 -14 -53 -19 -48
-13 -167 8 -167 14 0 28 45 21 65 -4 11 -3 55 1 99 6 63 12 84 32 105 38 40
60 91 40 91 -5 0 -21 -9 -38 -20z"/>
<path d="M7040 3743 c-74 -26 -84 -32 -108 -68 -32 -45 -27 -89 10 -93 22 -3
31 4 53 43 15 25 35 49 44 54 20 11 111 -4 164 -27 l38 -16 -4 -91 c-3 -49 -6
-101 -8 -115 -3 -19 1 -26 18 -28 24 -4 36 13 65 88 29 74 24 115 -19 158 -21
20 -45 47 -53 60 -17 26 -80 51 -125 51 -16 0 -50 -8 -75 -16z"/>
<path d="M3567 3623 c-15 -7 -32 -11 -37 -8 -5 3 -27 -6 -47 -20 -21 -14 -43
-25 -50 -25 -17 0 -93 -69 -93 -85 0 -7 -22 -41 -50 -75 -27 -34 -50 -65 -50
-69 1 -3 7 -17 15 -31 8 -14 14 -40 15 -57 0 -34 16 -43 38 -21 8 8 8 17 1 31
-8 14 -5 36 11 88 18 56 31 76 70 111 116 104 137 115 253 134 27 5 37 11 35
22 -4 21 -75 24 -111 5z"/>
<path d="M3770 3597 c0 -7 15 -21 33 -32 17 -10 54 -38 81 -62 26 -24 51 -43
55 -43 17 0 88 -171 102 -246 10 -53 10 -54 -26 -89 -43 -44 -46 -78 -8 -102
15 -10 86 -69 158 -132 71 -62 147 -124 167 -137 20 -13 49 -39 63 -59 l27
-35 294 0 294 0 13 23 c9 16 12 47 8 116 l-6 94 -42 12 c-53 16 -110 51 -117
73 -7 21 -54 72 -66 72 -24 0 6 -73 37 -93 7 -4 13 -19 13 -32 0 -26 33 -55
62 -55 21 0 34 -22 42 -75 11 -71 15 -70 -244 -68 -190 1 -237 4 -265 17 -19
9 -38 23 -42 30 -4 7 -55 53 -113 100 -91 76 -133 107 -204 151 -18 11 -25
136 -11 217 11 65 -18 154 -56 173 -16 9 -32 29 -38 48 -15 45 -41 68 -128
111 -82 41 -83 41 -83 23z"/>
<path d="M6924 3515 c-23 -23 -24 -26 -9 -54 15 -29 64 -71 84 -71 5 0 22 -11
37 -25 48 -44 154 -28 154 24 0 7 -21 21 -46 32 -39 18 -50 19 -75 9 -37 -16
-52 -4 -75 55 -20 54 -38 62 -70 30z"/>
<path d="M7477 3533 c-4 -3 -7 -19 -7 -35 0 -32 -61 -143 -111 -201 -32 -38
-93 -72 -110 -61 -10 6 -51 -14 -61 -30 -7 -11 -3 -177 8 -314 6 -80 21 -91
41 -31 11 35 10 201 -2 240 -9 29 62 102 134 137 64 32 107 90 117 161 3 25
13 61 20 80 11 25 11 37 3 47 -13 15 -22 17 -32 7z"/>
<path d="M5030 3486 c0 -3 11 -13 25 -22 23 -15 27 -15 50 0 24 16 28 15 98
-19 75 -37 107 -57 107 -69 0 -4 19 -40 42 -79 23 -39 41 -76 40 -82 0 -5 -1
-28 -2 -50 -3 -56 -18 -103 -51 -153 -28 -41 -37 -68 -21 -60 52 26 62 35 77
74 23 59 36 163 24 185 -5 10 -9 36 -9 59 0 53 -35 118 -68 127 -14 3 -39 22
-58 42 -18 20 -41 38 -51 39 -75 8 -203 13 -203 8z"/>
<path d="M7135 3480 c3 -5 15 -10 26 -10 10 0 19 5 19 10 0 6 -12 10 -26 10
-14 0 -23 -4 -19 -10z"/>
<path d="M4938 3463 c-32 -4 -44 -13 -86 -66 -74 -94 -84 -120 -89 -222 -4
-94 5 -131 28 -108 9 9 12 43 10 107 l-2 94 40 43 c78 84 98 104 131 132 19
15 28 26 20 25 -8 -1 -32 -3 -52 -5z"/>
<path d="M3702 3417 c-8 -10 -27 -12 -66 -9 -52 4 -56 3 -100 -38 -25 -23 -48
-52 -52 -63 -3 -12 -15 -41 -26 -63 l-20 -41 20 -47 c14 -31 30 -50 48 -56 15
-6 42 -28 61 -50 44 -50 84 -59 144 -32 24 10 59 25 76 32 35 13 73 64 73 98
0 29 -10 32 -54 19 -27 -9 -44 -23 -60 -50 -25 -44 -45 -52 -92 -37 -19 7 -47
10 -60 7 -29 -5 -44 16 -44 63 0 17 -7 41 -16 55 -24 36 -5 61 113 144 l42 30
33 -32 c19 -18 43 -39 53 -48 11 -9 28 -31 37 -48 22 -40 52 -39 56 2 10 82
-124 215 -166 164z"/>
<path d="M713 3334 c-14 -22 -18 -45 -16 -103 2 -83 16 -128 43 -136 9 -3 44
2 77 10 51 13 121 15 434 12 206 -2 388 -8 404 -14 39 -12 57 -7 74 20 16 25
27 142 17 181 -10 40 -45 58 -87 45 -74 -22 -761 -17 -891 6 -32 6 -38 4 -55
-21z"/>
<path d="M5004 3304 c-85 -57 -90 -80 -42 -214 10 -31 94 -90 127 -90 13 0 40
15 61 34 20 18 44 37 52 42 22 13 48 68 48 101 0 39 -39 103 -79 130 -48 33
-116 31 -167 -3z m164 -66 c25 -25 6 -120 -28 -138 -27 -15 -56 -12 -71 6 -7
8 -30 24 -51 35 -28 14 -38 26 -38 43 0 33 24 50 84 57 82 10 91 10 104 -3z"/>
<path d="M3261 3141 c-19 -35 -12 -58 29 -95 22 -20 40 -44 40 -53 1 -21 111
-123 133 -123 8 0 20 -7 27 -15 13 -16 90 -21 90 -7 0 11 -45 32 -69 32 -9 0
-56 40 -103 88 -64 65 -89 99 -97 129 -15 53 -36 72 -50 44z"/>
<path d="M621 2876 c-7 -8 -14 -52 -18 -98 -6 -89 8 -165 32 -174 8 -3 36 2
62 13 44 16 84 18 478 18 400 0 434 -1 472 -19 49 -22 69 -17 84 21 16 40 16
193 1 220 -17 31 -50 37 -95 18 -57 -23 -866 -24 -922 0 -46 19 -79 19 -94 1z"/>
<path d="M429 2394 c-18 -22 -20 -257 -2 -275 9 -9 34 -9 110 1 106 13 1067 9
1134 -5 32 -6 39 -4 59 22 21 26 22 35 16 117 -8 112 -20 140 -64 144 -19 2
-44 -4 -57 -12 -20 -13 -94 -16 -548 -17 -523 -2 -525 -2 -555 19 -36 26 -74
28 -93 6z"/>
<path d="M8060 2308 c-26 -58 -25 -68 8 -68 24 0 29 5 39 42 21 77 -15 96 -47
26z"/>
<path d="M2894 2227 c-2 -7 6 -38 20 -69 22 -51 28 -56 60 -60 20 -2 41 -1 46
2 17 11 -38 97 -76 119 -41 25 -43 25 -50 8z"/>
<path d="M7982 2214 c-32 -14 -72 -65 -72 -93 0 -10 8 -12 32 -7 49 10 60 23
82 94 8 25 4 26 -42 6z"/>
<path d="M7854 2090 c-32 -13 -37 -28 -14 -40 25 -13 56 -5 64 16 12 31 -9 41
-50 24z"/>
<path d="M3100 2032 c0 -35 38 -57 99 -59 31 -1 70 -2 86 -2 20 -1 43 -13 68
-36 44 -41 50 -42 77 -15 34 34 64 40 182 34 62 -3 588 -7 1168 -8 580 -1
1138 -5 1240 -8 178 -6 246 0 297 24 17 9 33 6 73 -11 46 -20 56 -21 108 -10
31 7 82 13 112 12 480 -4 977 2 1062 12 68 8 108 31 93 54 -8 14 -70 14 -132
1 -37 -8 -1256 -24 -1483 -20 -19 0 -631 3 -1360 5 -1149 4 -1330 2 -1363 -10
-37 -15 -80 -12 -104 7 -15 12 -160 48 -195 48 -21 0 -28 -5 -28 -18z"/>
<path d="M1895 1484 c-12 -12 -15 -26 -11 -50 4 -18 11 -112 16 -211 7 -145 7
-180 -4 -192 -19 -18 -48 -7 -101 39 -71 61 -199 77 -296 36 -143 -60 -212
-196 -211 -416 0 -121 22 -252 46 -279 8 -9 22 -34 32 -56 16 -33 31 -46 87
-74 134 -67 263 -52 360 40 70 67 92 64 92 -11 0 -30 4 -61 8 -67 8 -13 73
-18 99 -8 11 5 13 112 12 633 l-1 627 -55 3 c-42 2 -60 -1 -73 -14z m-200
-485 c22 -6 73 -30 112 -52 89 -51 91 -58 91 -252 0 -152 -9 -209 -36 -224
-10 -5 -40 -27 -66 -49 -53 -44 -102 -62 -166 -62 -146 0 -195 71 -206 299 -7
123 -6 132 20 202 35 95 44 106 103 129 56 22 92 24 148 9z"/>
<path d="M576 1447 c-9 -7 -26 -46 -36 -88 -11 -41 -35 -113 -53 -160 -19 -46
-37 -100 -41 -120 -3 -20 -22 -73 -42 -118 -19 -45 -42 -114 -50 -153 -8 -39
-21 -83 -29 -99 -9 -15 -40 -99 -70 -185 -30 -87 -64 -176 -75 -199 -36 -74
-21 -98 56 -93 42 3 50 7 66 35 10 17 27 62 38 100 10 38 31 100 45 139 l25
69 240 -1 c170 -1 244 -5 254 -13 8 -7 18 -31 22 -54 3 -23 17 -65 30 -94 13
-28 24 -66 24 -83 0 -17 7 -46 15 -66 l14 -35 62 3 c80 4 91 19 61 80 -37 74
-77 178 -115 298 -51 162 -66 207 -152 455 -42 121 -82 244 -91 273 -28 104
-46 122 -123 122 -31 0 -65 -6 -75 -13z m103 -165 c5 -9 16 -51 25 -92 18 -84
100 -325 140 -411 15 -31 24 -64 20 -72 -8 -21 -52 -29 -94 -17 -41 12 -154
12 -225 1 -59 -10 -105 3 -105 29 0 10 13 45 30 78 41 84 109 281 130 382 10
47 22 93 25 103 9 22 42 22 54 -1z"/>
<path d="M2860 1453 c-76 -9 -188 -46 -236 -78 -45 -30 -54 -41 -78 -105 -43
-118 -32 -274 27 -362 26 -38 43 -52 87 -69 30 -11 59 -24 65 -29 5 -4 30 -10
55 -13 25 -3 65 -10 90 -16 25 -5 84 -15 132 -22 165 -21 212 -66 211 -200 -2
-110 -21 -147 -93 -177 -54 -22 -61 -22 -285 -16 -273 9 -274 9 -287 -4 -17
-17 -22 -88 -7 -98 17 -10 126 -15 369 -17 175 -2 189 -1 255 23 58 22 76 34
112 78 58 71 77 140 68 241 -8 90 -30 146 -84 210 -54 64 -101 78 -371 111
-102 13 -172 34 -195 60 -49 54 -59 175 -21 256 21 45 30 54 90 82 l66 32 167
-5 c93 -3 193 -7 223 -11 46 -4 60 -2 79 14 19 14 23 25 17 45 -9 36 -33 47
-113 52 -38 2 -111 9 -163 15 -96 10 -117 10 -180 3z"/>
<path d="M4455 1132 c-11 -2 -24 -8 -28 -12 -5 -4 -9 -201 -9 -436 1 -483 -4
-454 78 -454 53 0 78 22 70 59 -4 14 -9 145 -12 290 l-6 263 70 68 c54 54 80
72 122 84 118 35 186 7 231 -93 17 -39 19 -68 19 -299 0 -164 -4 -268 -12
-293 -16 -54 7 -79 70 -79 82 0 80 -7 76 308 -5 275 -16 408 -38 448 -21 38
-105 105 -156 125 -105 40 -233 14 -297 -60 -26 -31 -42 -41 -64 -41 -28 0
-29 2 -29 49 0 60 -28 84 -85 73z"/>
<path d="M3804 1124 c-120 -34 -130 -39 -180 -86 -54 -51 -57 -57 -94 -173
-21 -63 -22 -81 -16 -199 6 -111 11 -139 36 -198 48 -112 80 -151 157 -189 63
-31 76 -34 183 -37 68 -2 138 1 170 8 30 7 78 18 105 24 l50 11 0 45 c0 40 -3
46 -28 54 -19 7 -38 6 -65 -4 -48 -17 -283 -25 -328 -10 -87 29 -190 220 -130
243 7 3 65 1 127 -5 177 -15 286 -7 356 28 54 27 59 33 77 84 16 47 17 63 7
111 -23 117 -41 158 -84 200 -71 69 -122 89 -235 92 -55 2 -103 2 -108 1z
m155 -125 c67 -11 86 -27 122 -104 32 -66 37 -120 15 -150 -13 -18 -28 -20
-173 -21 -87 0 -183 -4 -214 -8 -46 -7 -59 -5 -72 9 -18 17 -17 25 10 123 36
130 142 181 312 151z"/>
<path d="M5483 1109 c-47 -15 -70 -29 -97 -60 -52 -61 -66 -98 -66 -173 0
-168 97 -242 340 -261 115 -9 155 -21 179 -52 37 -45 22 -143 -27 -187 -20
-17 -34 -18 -199 -12 -98 3 -197 9 -221 12 -41 6 -42 5 -58 -31 -21 -52 -15
-77 21 -87 17 -4 111 -11 210 -14 198 -8 258 0 331 42 79 45 118 192 78 296
-22 57 -80 116 -124 128 -80 20 -145 30 -195 30 -90 0 -156 19 -188 54 -26 27
-29 35 -24 78 7 53 45 112 80 125 31 10 271 4 336 -9 51 -10 56 -9 73 12 22
28 23 73 2 91 -18 15 -211 38 -319 38 -42 0 -95 -8 -132 -20z"/>
<path d="M6445 1120 c-132 -35 -210 -91 -253 -180 -27 -54 -27 -58 -26 -255 0
-226 6 -252 71 -331 64 -78 168 -114 331 -114 108 0 115 1 180 34 76 38 112
81 158 186 27 62 29 72 28 210 0 125 -3 156 -24 220 -20 63 -33 85 -83 137
-61 64 -71 69 -197 93 -55 11 -145 11 -185 0z m234 -134 c40 -21 97 -88 112
-132 8 -25 13 -90 13 -179 0 -127 -2 -144 -23 -187 -37 -74 -81 -110 -143
-119 -89 -13 -197 -10 -226 5 -41 22 -87 76 -107 126 -13 35 -17 77 -18 187
-1 129 1 146 22 192 17 36 38 59 75 84 28 19 60 38 71 41 36 9 195 -3 224 -18z"/>
<path d="M7111 1121 c-11 -7 -11 -26 -4 -102 6 -55 7 -233 3 -429 -8 -379 -11
-360 71 -360 75 0 74 -6 70 305 -2 201 0 279 9 296 25 47 84 112 129 141 43
27 51 29 137 26 105 -3 124 6 124 58 0 45 -32 65 -114 71 -90 8 -159 -21 -221
-94 -58 -66 -73 -60 -77 30 l-3 62 -55 3 c-30 1 -61 -2 -69 -7z"/>
<path d="M7960 1091 c-68 -11 -124 -45 -163 -99 -65 -88 -72 -180 -19 -277 23
-42 37 -55 92 -82 56 -29 84 -35 203 -47 121 -13 143 -18 172 -40 19 -14 37
-35 40 -47 12 -36 -5 -107 -31 -139 l-26 -30 -144 0 c-80 0 -177 5 -215 12
-65 10 -72 10 -89 -8 -23 -23 -34 -73 -21 -93 20 -30 404 -41 499 -15 82 23
107 47 137 132 30 85 31 121 7 182 -28 72 -40 88 -86 115 -63 37 -95 44 -234
55 -125 10 -150 17 -189 53 -50 45 -10 169 63 197 12 5 105 5 205 0 167 -9
185 -8 197 7 19 26 15 91 -5 101 -33 17 -327 34 -393 23z"/>
<path d="M0 85 l0 -85 98 0 c87 1 95 2 77 15 -63 46 -84 63 -117 99 -21 22
-38 43 -38 48 0 4 -4 8 -10 8 -6 0 -10 -35 -10 -85z"/>
</g>
</svg>
